PathFileType	4	(X/Y/Z)	Walk2.trc
DataRate	CameraRate	NumFrames	NumMarkers	Units	OrigDataRate	OrigDataStartFrame	OrigNumFrames
200.000000	200.000000	4	61	mm	200.000000	345	591
Frame#	Times		RCAR		RTH2		LTH3		LTB1		LWRU		LBHD		LFA1		RTH3		LUA1		LElbow		LCAR		RToe		RPSI		RASI		RTB2		RLFC		RTB3		RTB1		C7		RMT5		LElbowM		RTB4		LTH4		RTH4		LTH1		LTH2		RWRR		RBHD		LWRR		STRN		RFA1		RMT1		RTH1		RMMAL		RLMAL		RBack		T10		LPSI		LASI		CLAV		RElbow		RUA1		RCAL		LLFC		LMFC		LACR1		LTB4		RElbowM		LTB3		LCAL		RFHD		RACR1		LFHD		LMMAL		RMFC		LTB2		LMT5		LLMAL		RWRU		LToe		LMT1
			X1	Y1	Z1	X2	Y2	Z2	X3	Y3	Z3	X4	Y4	Z4	X5	Y5	Z5	X6	Y6	Z6	X7	Y7	Z7	X8	Y8	Z8	X9	Y9	Z9	X10	Y10	Z10	X11	Y11	Z11	X12	Y12	Z12	X13	Y13	Z13	X14	Y14	Z14	X15	Y15	Z15	X16	Y16	Z16	X17	Y17	Z17	X18	Y18	Z18	X19	Y19	Z19	X20	Y20	Z20	X21	Y21	Z21	X22	Y22	Z22	X23	Y23	Z23	X24	Y24	Z24	X25	Y25	Z25	X26	Y26	Z26	X27	Y27	Z27	X28	Y28	Z28	X29	Y29	Z29	X30	Y30	Z30	X31	Y31	Z31	X32	Y32	Z32	X33	Y33	Z33	X34	Y34	Z34	X35	Y35	Z35	X36	Y36	Z36	X37	Y37	Z37	X38	Y38	Z38	X39	Y39	Z39	X40	Y40	Z40	X41	Y41	Z41	X42	Y42	Z42	X43	Y43	Z43	X44	Y44	Z44	X45	Y45	Z45	X46	Y46	Z46	X47	Y47	Z47	X48	Y48	Z48	X49	Y49	Z49	X50	Y50	Z50	X51	Y51	Z51	X52	Y52	Z52	X53	Y53	Z53	X54	Y54	Z54	X55	Y55	Z55	X56	Y56	Z56	X57	Y57	Z57	X58	Y58	Z58	X59	Y59	Z59	X60	Y60	Z60	X61	Y61	Z61

345	1.725	-159.6	827.28	320.68	-24.38	749.31	171.95	-213.48	612.71	-150.41	-221.23	369.01	-54.611	-48.671	891.11	-300.78	-196.99	1643.3	-85.951	-115.05	1008.6	-320.08	-56.911	636.93	200.69	-173.77	1304.5	-279.67	-176.01	1148.9	-314.51	32.048	876.99	-309.72	86.947	53.136	160.18	-339.26	1026.5	41.908	-125.83	1043.1	144.16	-45.912	307.92	185.14	-37.768	525.47	194.32	-30.556	218.91	117.78	9.1999	399.69	132.82	-228.13	1516.7	-9.1449	-10.045	42.059	195.42	-211.69	1130.1	-247.71	-9.2981	308.63	124.12	-201.7	702.65	-166.91	-86.611	727.19	207.49	-187.54	793.66	-183.82	-134.67	700.04	-140.39	-153.39	865.97	266.07	-191.21	1653.8	55.691	12.673	925.13	-256.2	-57.085	1251.5	-11.458	-248.77	991.99	302.08	45.375	52.154	129.45	-124.46	815.29	203.49	-48.641	122.21	79.789	-96.362	100.19	151.7	-310.82	1432.5	117.84	-338.41	1296.2	-12.57	-342.56	1026	-36.199	-132.39	1040.4	-142.04	-99.825	1425.6	-8.7599	-263.88	1141.5	276.34	-212.31	1291.3	246.9	-143.46	66.267	92.598	-235.77	509.19	-137.84	-234.05	518.09	-7.808	-154.72	1471.2	-174.62	-247.01	282.71	-51.34	-281.9	1127	198.31	-274.77	190.51	-50.964	-405.79	30.166	-56.038	-15.288	1686.6	24.98	-156.28	1462.2	153.68	-17.071	1682	-51.518	-321.24	90.9	-10.16	-17.671	535.77	63.724	-261.24	286.33	-125.3	-243.85	21.467	-122.27	-341.95	71.038	-94.284	-218.65	857.6	306.01	-147.18	29.422	-44.434	-202.21	38.599	-33.705
346	1.73	-157.21	826.76	321.37	-19.672	748.33	171.88	-211.28	612.61	-150.46	-220.26	368.82	-54.721	-40.098	891.81	-301	-191.41	1642.7	-85.695	-107.26	1008.8	-320.42	-52.361	635.99	200.61	-167.71	1304.2	-279.68	-169.23	1148.8	-314.92	40.787	878.35	-309.86	106	55.349	161.01	-334.17	1026	42.244	-120.66	1042.3	144.49	-34.436	306.82	185.69	-32.529	524.66	194.16	-16.567	217.98	118.64	17.702	399.92	132.88	-222.6	1516.2	-8.9622	9.5192	41.715	196.69	-204.92	1129.6	-248.19	1.9691	308.33	124.58	-198.82	702.48	-166.82	-81.905	726.32	207.55	-183.97	793.38	-183.68	-131.79	699.28	-140.37	-150.71	865.39	266.8	-185.68	1653.2	55.952	20.963	926.3	-256.36	-51.792	1250.9	-11.291	-245.61	991.86	302.44	64.348	53.22	130.45	-119.54	814.5	203.73	-31.838	120.61	80.989	-78.638	97.435	153.16	-305.38	1432.1	117.95	-333.12	1295.9	-12.287	-337.54	1025.5	-35.822	-127.55	1039.8	-141.83	-94.383	1425	-8.5609	-260.05	1141.4	276.59	-207.66	1291	247.13	-125	62.113	94.275	-234.35	509.16	-137.93	-232.34	518.09	-7.8773	-149.13	1470.7	-174.38	-246.3	282.59	-51.434	-277.85	1127	198.48	-274.36	190.49	-51.066	-405.8	30.441	-56.094	-9.7489	1686	25.311	-150.81	1461.7	153.91	-11.503	1681.4	-51.189	-321.12	91.028	-10.236	-13.017	534.95	63.306	-260.6	286.31	-125.42	-243.87	21.394	-122.28	-341.93	71.22	-94.345	-216.09	857.32	306.51	-147.2	29.424	-44.422	-202.21	38.611	-33.737
347	1.735	-154.73	826.25	322.06	-15.06	747.2	171.79	-209.05	612.5	-150.49	-219.26	368.63	-54.822	-31.609	892.45	-301.18	-185.83	1642.2	-85.433	-99.533	1008.9	-320.72	-47.955	634.91	200.54	-161.67	1303.9	-279.67	-162.47	1148.5	-315.29	49.437	879.64	-309.96	124.8	57.783	161.66	-329.04	1025.4	42.615	-115.47	1041.4	144.85	-23.06	305.81	186.21	-27.414	523.75	193.99	-2.7442	217.22	119.46	26.051	400.15	132.89	-217.06	1515.7	-8.7694	28.918	41.611	197.85	-198.19	1129.1	-248.62	13.07	308.11	125	-195.93	702.31	-166.72	-77.296	725.33	207.59	-180.39	793.08	-183.54	-128.91	698.52	-140.35	-147.97	864.82	267.54	-180.14	1652.5	56.22	29.174	927.42	-256.49	-46.49	1250.2	-11.11	-242.38	991.72	302.81	83.083	54.54	131.3	-114.67	813.61	203.96	-15.213	119.27	82.15	-61.033	94.958	154.6	-299.91	1431.7	118.09	-327.82	1295.5	-11.976	-332.49	1025	-35.404	-122.7	1039.1	-141.62	-88.929	1424.4	-8.3525	-256.16	1141.3	276.87	-202.95	1290.6	247.36	-106.67	58.295	95.94	-232.9	509.13	-138	-230.58	518.09	-7.9401	-143.52	1470.2	-174.13	-245.57	282.48	-51.525	-273.76	1126.9	198.68	-273.93	190.48	-51.163	-405.81	30.735	-56.147	-4.199	1685.3	25.645	-145.32	1461.1	154.15	-5.9262	1680.8	-50.857	-321	91.166	-10.314	-8.4484	534.02	62.863	-259.94	286.3	-125.53	-243.9	21.322	-122.3	-341.9	71.416	-94.404	-213.46	857.04	307.03	-147.22	29.423	-44.41	-202.22	38.622	-33.77
348	1.74	-152.17	825.72	322.77	-10.539	745.92	171.68	-206.81	612.4	-150.5	-218.23	368.43	-54.913	-23.202	893.05	-301.33	-180.24	1641.6	-85.164	-91.865	1009.1	-320.98	-43.68	633.7	200.47	-155.63	1303.6	-279.64	-155.75	1148.3	-315.63	57.997	880.86	-310.04	143.32	60.424	162.12	-323.89	1024.8	43.024	-110.25	1040.4	145.23	-11.805	304.88	186.71	-22.411	522.76	193.81	10.889	216.62	120.23	34.247	400.38	132.86	-211.51	1515.2	-8.5664	48.098	41.742	198.89	-191.5	1128.6	-249.02	23.994	307.97	125.37	-193.03	702.14	-166.61	-72.773	724.23	207.62	-176.81	792.77	-183.37	-126.02	697.76	-140.32	-145.14	864.23	268.28	-174.59	1651.8	56.497	37.308	928.47	-256.58	-41.178	1249.5	-10.917	-239.07	991.56	303.21	101.54	56.104	132.01	-109.86	812.61	204.18	1.2007	118.19	83.263	-43.59	92.765	156.01	-294.41	1431.3	118.25	-322.51	1295.1	-11.636	-327.41	1024.4	-34.943	-117.84	1038.4	-141.42	-83.462	1423.7	-8.1343	-252.2	1141.2	277.17	-198.19	1290.3	247.6	-88.516	54.821	97.57	-231.42	509.12	-138.06	-228.77	518.1	-7.9967	-137.92	1469.6	-173.87	-244.82	282.38	-51.613	-269.62	1126.8	198.9	-273.49	190.47	-51.257	-405.82	31.05	-56.196	1.3612	1684.6	25.982	-139.81	1460.5	154.39	-0.34022	1680.2	-50.523	-320.86	91.314	-10.393	-3.9576	532.98	62.398	-259.27	286.31	-125.62	-243.92	21.251	-122.32	-341.86	71.625	-94.461	-210.75	856.74	307.58	-147.24	29.419	-44.401	-202.22	38.633	-33.804
